<?xml version="1.0" encoding="UTF-8" standalone="no"?>
<svg
   xmlns:dc="http://purl.org/dc/elements/1.1/"
   xmlns:cc="http://creativecommons.org/ns#"
   xmlns:rdf="http://www.w3.org/1999/02/22-rdf-syntax-ns#"
   xmlns:svg="http://www.w3.org/2000/svg"
   xmlns="http://www.w3.org/2000/svg"
   width="16"
   height="16"
   version="1.1"
   id="svg881">
  <metadata
     id="metadata887">
    <rdf:RDF>
      <cc:Work
         rdf:about="">
        <dc:format>image/svg+xml</dc:format>
        <dc:type
           rdf:resource="http://purl.org/dc/dcmitype/StillImage" />
        <dc:title></dc:title>
      </cc:Work>
    </rdf:RDF>
  </metadata>
  <defs
     id="defs885" />
  <path
     d="M7.502 1.019a.996.996 0 0 0-.998.998v.451a5.734 5.734 0 0 0-1.356.566l-.322-.322a.995.995 0 0 0-1.41 0l-.705.705a.995.995 0 0 0 0 1.41l.32.32a5.734 5.734 0 0 0-.56 1.358h-.454a.995.995 0 0 0-.998.996V8.5c0 .553.446.996.998.996h.45a5.734 5.734 0 0 0 .566 1.356l-.322.322a.995.995 0 0 0 0 1.41l.705.705c.39.391 1.02.391 1.41 0l.32-.32a5.734 5.734 0 0 0 1.358.56v.456c0 .552.445.996.998.996h.996a.995.995 0 0 0 .998-.996v-.451a5.734 5.734 0 0 0 1.355-.567l.323.322c.39.391 1.02.391 1.41 0l.705-.705a.995.995 0 0 0 0-1.41l-.32-.32a5.734 5.734 0 0 0 .56-1.358h.453a.995.995 0 0 0 .998-.996v-.998a.995.995 0 0 0-.998-.996h-.449a5.734 5.734 0 0 0-.566-1.355l.322-.323a.995.995 0 0 0 0-1.41l-.705-.705a.995.995 0 0 0-1.41 0l-.32.32a5.734 5.734 0 0 0-1.358-.56v-.455a.996.996 0 0 0-.998-.998zm.515 3.976a3 3 0 0 1 3 3 3 3 0 0 1-3 3 3 3 0 0 1-3-3 3 3 0 0 1 3-3z"
     style="marker:none;fill-opacity:1;fill:#bebebe"
     fill="#2e3436"
     id="path879" />
</svg>
