<?xml version="1.0" encoding="UTF-8" standalone="no"?>
<svg
   xmlns:dc="http://purl.org/dc/elements/1.1/"
   xmlns:cc="http://creativecommons.org/ns#"
   xmlns:rdf="http://www.w3.org/1999/02/22-rdf-syntax-ns#"
   xmlns:svg="http://www.w3.org/2000/svg"
   xmlns="http://www.w3.org/2000/svg"
   width="32"
   height="32"
   viewBox="0 0 8.4666665 8.466667"
   version="1.1"
   id="svg8">
  <defs
     id="defs2" />
  <metadata
     id="metadata5">
    <rdf:RDF>
      <cc:Work
         rdf:about="">
        <dc:format>image/svg+xml</dc:format>
        <dc:type
           rdf:resource="http://purl.org/dc/dcmitype/StillImage" />
        <dc:title></dc:title>
      </cc:Work>
    </rdf:RDF>
  </metadata>
  <g
     id="layer1"
     transform="matrix(0.49996357,0,0,0.49996357,0.01938007,0.00978634)">
    <path
       id="path833"
       style="fill:#bebebe;fill-opacity:1;stroke-width:0.999999"
       d="M 31.810547,0.07421875 A 31.916231,31.916231 0 0 0 0.14648438,31.990234 31.916231,31.916231 0 0 0 32.0625,63.90625 31.916231,31.916231 0 0 0 63.978516,31.990234 31.916231,31.916231 0 0 0 32.0625,0.07421875 a 31.916231,31.916231 0 0 0 -0.251953,0 z M 31.919922,3.578125 A 28.472441,28.472441 0 0 1 60.392578,32.050781 28.472441,28.472441 0 0 1 31.919922,60.523438 28.472441,28.472441 0 0 1 3.4472656,32.050781 28.472441,28.472441 0 0 1 31.919922,3.578125 Z"
       transform="scale(0.26458333)" />
    <circle
       style="fill:#bebebe;fill-opacity:1;stroke-width:0.254438"
       id="path840"
       cx="8.3893003"
       cy="8.432106"
       r="7.0744858" />
  </g>
</svg>
