<?xml version="1.0" encoding="UTF-8" standalone="no"?>
<svg
   xmlns:dc="http://purl.org/dc/elements/1.1/"
   xmlns:cc="http://creativecommons.org/ns#"
   xmlns:rdf="http://www.w3.org/1999/02/22-rdf-syntax-ns#"
   xmlns:svg="http://www.w3.org/2000/svg"
   xmlns="http://www.w3.org/2000/svg"
   width="64"
   height="64"
   viewBox="0 0 16.933333 16.933334"
   version="1.1"
   id="svg8">
  <defs
     id="defs2" />
  <metadata
     id="metadata5">
    <rdf:RDF>
      <cc:Work
         rdf:about="">
        <dc:format>image/svg+xml</dc:format>
        <dc:type
           rdf:resource="http://purl.org/dc/dcmitype/StillImage" />
        <dc:title></dc:title>
      </cc:Work>
    </rdf:RDF>
  </metadata>
  <g
     id="layer1">
    <path
       id="path833"
       style="fill:#bebebe;stroke-width:0.999999;fill-opacity:1"
       d="M 31.810547 0.07421875 A 31.916231 31.916231 0 0 0 0.14648438 31.990234 A 31.916231 31.916231 0 0 0 32.0625 63.90625 A 31.916231 31.916231 0 0 0 63.978516 31.990234 A 31.916231 31.916231 0 0 0 32.0625 0.07421875 A 31.916231 31.916231 0 0 0 31.810547 0.07421875 z M 31.919922 3.578125 A 28.472441 28.472441 0 0 1 60.392578 32.050781 A 28.472441 28.472441 0 0 1 31.919922 60.523438 A 28.472441 28.472441 0 0 1 3.4472656 32.050781 A 28.472441 28.472441 0 0 1 31.919922 3.578125 z "
       transform="scale(0.26458333)" />
    <circle
       style="fill:#bebebe;stroke-width:0.254438;fill-opacity:1"
       id="path840"
       cx="8.3893003"
       cy="8.432106"
       r="7.0744858" />
  </g>
</svg>
