<?xml version="1.0" encoding="UTF-8" standalone="no"?>
<svg
   xmlns:dc="http://purl.org/dc/elements/1.1/"
   xmlns:cc="http://creativecommons.org/ns#"
   xmlns:rdf="http://www.w3.org/1999/02/22-rdf-syntax-ns#"
   xmlns:svg="http://www.w3.org/2000/svg"
   xmlns="http://www.w3.org/2000/svg"
   width="32"
   height="32"
   viewBox="0 0 8.4666665 8.466667"
   version="1.1"
   id="svg8">
  <defs
     id="defs2" />
  <metadata
     id="metadata5">
    <rdf:RDF>
      <cc:Work
         rdf:about="">
        <dc:format>image/svg+xml</dc:format>
        <dc:type
           rdf:resource="http://purl.org/dc/dcmitype/StillImage" />
        <dc:title></dc:title>
      </cc:Work>
    </rdf:RDF>
  </metadata>
  <path
     style="fill:#bebebe;fill-opacity:1;stroke-width:1"
     d="M 16 0 A 16.000001 16.000001 0 0 0 8.5097656 1.8730469 L 11.611328 13.443359 L 19.189453 0.3203125 A 16.000001 16.000001 0 0 0 16 0 z M 20.699219 0.70703125 L 14.705078 11.087891 L 29.330078 7.1679688 A 16.000001 16.000001 0 0 0 20.699219 0.70703125 z M 7.1679688 2.6699219 A 16.000001 16.000001 0 0 0 0.70703125 11.300781 L 11.087891 17.294922 L 7.1679688 2.6699219 z M 30.126953 8.5117188 L 18.558594 11.611328 L 31.679688 19.189453 A 16.000001 16.000001 0 0 0 32 16 A 16.000001 16.000001 0 0 0 30.126953 8.5117188 z M 0.3203125 12.810547 A 16.000001 16.000001 0 0 0 0 16 A 16.000001 16.000001 0 0 0 1.8730469 23.490234 L 13.443359 20.388672 L 0.3203125 12.810547 z M 20.912109 14.705078 L 24.832031 29.330078 A 16.000001 16.000001 0 0 0 31.292969 20.699219 L 20.912109 14.705078 z M 20.388672 18.558594 L 12.8125 31.679688 A 16.000001 16.000001 0 0 0 16 32 A 16.000001 16.000001 0 0 0 23.490234 30.126953 L 20.388672 18.558594 z M 17.294922 20.912109 L 2.6699219 24.832031 A 16.000001 16.000001 0 0 0 11.300781 31.292969 L 17.294922 20.912109 z "
     transform="scale(0.26458334)"
     id="path4537" />
</svg>
